Genre:Drama | Thriller
Language: English
IMDB:http://www.imdb.com/title/tt1440728/
Source:720p BluRay DTS x264-DNL

Format : MPEG-4
Format profile : Base Media
Codec ID : mp42
File size : 1.56 GiB
Duration : 1h 40mn
Overall bit rate : 2 226 Kbps


Video
Codec ID : avc1
Codec ID/Info : Advanced Video Coding
Duration : 1h 40mn
Bit rate mode : Variable
Bit rate : 1 745 Kbps
Width : 1 280 pixels
Height : 720 pixels
Display aspect ratio : 16:9
Frame rate mode : Constant
Frame rate : 23.976 fps
Color space : YUV
Chroma subsampling : 4:2:0
Bit depth : 8 bits
Scan type : Progressive
Bits/(Pixel*Frame) : 0.079
Stream size : 1.23 GiB (78%)
Language : English

Audio
ID : 2
Format : AAC
Format/Info : Advanced Audio Codec
Format version : Version 4
Format profile : LC
Codec ID : 40
Duration : 1h 40mn
Bit rate mode : Constant
Bit rate : 480 Kbps
Channel(s) : 6 channels
Channel positions : Front: L C R, Side: L R, LFE
Sampling rate : 48.0 KHz
Stream size : 343 MiB (21%)
Language : English


Plot
An assassin hides out in Italy for one last assignment.

